<svg width="200" height="200" xmlns="http://www.w3.org/2000/svg">
 <g id="Layer_1">
  <title>Layer 1</title>
  <text stroke-dasharray="2,2" transform="matrix(1.9333 0 0 1.92004 -77.6645 -131.118)" stroke="#5B9BA2" font-style="normal" font-weight="normal" text-anchor="start" font-family="'Sacramento'" font-size="22" id="svg_2" y="148.55657" x="48.70827" stroke-width="0" fill="#BF7E96">Cape Town</text>
  <path stroke="#000" id="svg_7" d="m115.61545,27.62464c-2.49771,1.146 -4.77692,2.67382 -7.07434,4.03558c-0.78295,0.46371 -1.67242,1.20079 -2.39802,1.42615c-1.84904,0.57215 -4.74232,-0.42869 -7.09937,-0.53318c-5.89126,-0.25925 -9.70542,0.27845 -14.54835,1.18441c-2.26646,0.42304 -4.61305,0.81954 -6.60229,1.54307c-1.69928,0.61847 -3.64756,2.00056 -5.54895,3.16295c-3.00481,1.83733 -5.05141,3.56735 -7.39435,5.78255c-3.91613,3.70008 -6.38152,8.35809 -9.24703,13.47585c-1.25136,2.23383 -3.05351,5.56227 -3.14319,8.20559c-1.65649,3.11494 -4.17332,5.01666 -4.80469,9.57639c0.88264,2.66648 3.17005,0.2954 4.54841,-0.59249c1.13983,-0.73651 2.36615,-1.61649 3.37625,-1.9695c5.24988,-1.8362 12.56593,0.78848 17.67742,-0.8941c1.81172,-0.59588 3.38126,-1.79893 5.18114,-2.30839c1.70929,-0.48517 3.01664,0.37391 4.23523,1.02683c0.6473,0.34792 1.3292,0.81898 1.91732,1.19345c3.80824,2.44168 7.61467,5.03022 12.72753,6.00508c4.10367,0.78114 7.66884,-0.7094 11.00458,-1.51483c0.84668,-0.20503 1.94054,-0.13047 2.58283,-1.02739c-2.66249,-0.74612 -4.87206,-2.01864 -7.65245,-3.37701c-3.65211,-1.78255 -6.48894,-2.98842 -7.86913,-6.56707c1.63464,-0.53092 3.52784,-0.13725 5.22939,0.2327c1.85815,0.40215 3.70218,0.78001 5.48522,1.14374c7.52863,1.53798 13.19866,4.11974 18.92969,7.46907c2.78403,1.62496 5.34957,3.8893 7.70935,5.78989c4.83291,3.8972 8.95843,8.73651 12.84952,14.00847c1.76119,2.3869 3.33438,5.37588 5.24441,8.22479c0.83485,1.24541 1.67424,2.63485 2.56644,4.17283c0.8526,1.46117 2.15357,3.25219 2.33383,4.53036c0.20302,1.41147 -0.40104,2.95905 -0.70511,4.50155c-0.52576,2.67947 -0.9136,5.5538 -0.73743,8.305c0.23033,3.55832 0.87126,7.024 2.21503,9.71985c0.58312,-0.64332 0.82119,-1.77577 1.12162,-2.81276c1.47304,-2.33606 3.4327,-4.6693 3.48141,-8.5569c4.02356,2.58006 11.83897,2.36374 16.53122,2.29653c1.41068,-0.02033 2.84776,0.16493 4.01627,-0.51567c-2.46448,-1.77238 -4.27346,-4.01525 -6.41566,-6.305c-3.24106,-3.45947 -5.92176,-6.3739 -10.69959,-8.22479c-1.54861,-0.59983 -3.32163,-0.9246 -4.17013,-2.03615c-0.65231,-0.85061 -0.85078,-2.73482 -1.18171,-4.54956c-0.88993,-4.90652 -2.04706,-10.11239 -3.07946,-14.24174c-3.09812,-12.41231 -7.82679,-23.44365 -14.11818,-32.01072c-3.18825,-4.34453 -6.99559,-7.88252 -11.10062,-11.81643c-0.70147,-1.36459 -2.01565,-3.20531 -2.28695,-5.28608c-0.27767,-2.14233 0.22305,-4.02259 1.29005,-5.46173c2.33429,-2.11353 6.00188,-2.34736 7.58781,-5.51087c-2.07346,-1.85202 -4.64628,-2.3948 -7.17084,-2.69754c-5.45381,-0.65462 -10.56348,-0.14629 -14.79416,1.79723z" stroke-dasharray="2,2" stroke-width="0" fill="#B8D078"/>
 </g>

</svg>