<svg width="200" height="200" xmlns="http://www.w3.org/2000/svg">
 <g id="Layer_1">
  <title>Layer 1</title>
  <text fill="#bf0000" stroke-width="0" x="47.4081" y="138.89098" id="svg_2" font-size="15" font-family="'Sacramento'" text-anchor="start" xml:space="preserve" font-weight="bold" font-style="normal" stroke="#5B9BA2" transform="matrix(3.85493 0 0 3.75254 -164.254 -451.604)" stroke-dasharray="2,2">Dubai</text>
  <path id="svg_3" d="m106.05886,160.09999c3.74211,1.66264 10.51083,-6.10197 3.69161,-6.55657c-4.61555,-3.8557 10.23229,-1.10397 4.18165,-9.24698c-6.47325,-1.87057 -11.53361,-8.40991 -13.78751,-16.77521c-2.63307,-9.01125 -11.20406,-6.53556 -16.81968,-9.13926c-11.20631,-2.65531 -22.39995,-5.79391 -33.79752,-6.56869c-3.79051,5.66905 -5.57803,17.84775 -12.32323,17.37283c-6.74276,-4.50275 0.28477,-15.80671 -1.73547,-22.26443c-3.96059,-1.77115 -3.20505,-5.2077 0.65752,-5.64268c5.89308,-5.39802 0.99005,-15.83261 -0.29215,-22.94329c-3.11925,-6.75362 3.56031,-12.70832 6.10551,-4.73924c3.24319,8.31132 5.12591,17.43692 7.70189,26.15034c0.80378,5.5896 6.76171,2.42059 9.88214,4.08808c13.15823,1.87882 26.32898,3.7674 39.55804,4.49424c6.62696,-3.79474 13.6597,-6.97447 20.98885,-5.62601c5.12563,2.06153 8.02042,-0.47916 7.79272,-7.5131c2.91003,-10.13146 -7.13089,-5.6193 -11.6579,-7.11052c-18.06038,-1.16577 -36.17414,-1.51875 -54.22793,-0.08604c-4.0082,-1.32748 5.29394,-1.20695 6.70549,-1.51212c19.04975,-1.33563 38.1399,-0.67861 57.19459,-1.81446c5.49453,-2.68981 10.94802,2.09976 16.54999,1.2886c14.12965,0.76829 28.27199,1.03575 42.41255,1.09401c-3.99748,3.94356 -11.45437,0.03892 -16.74208,1.01585c-10.62569,-0.43298 -21.31873,-0.8391 -31.88193,1.0806c-4.11426,5.2756 -1.95437,16.5415 3.19383,19.16562c5.2465,3.74358 10.63009,7.02524 15.40639,11.4742c3.01869,7.6306 11.55082,14.03299 9.03426,23.64173c-2.88404,7.95128 -13.34189,2.95173 -15.98977,5.18785c1.95896,4.60737 8.72384,5.07334 9.94048,6.75779c-6.67029,2.54995 -0.31008,7.99498 3.48374,6.26662c4.68159,1.4711 -4.7602,2.50436 -6.31898,2.02065c-7.58431,0.08097 -15.164,-0.3521 -22.74641,-0.4905c7.32669,-0.4339 14.67427,-0.42515 21.97847,-1.38928c-1.70373,-9.29698 -10.7053,-4.74949 -15.89198,-6.36305c-2.52845,-1.72043 -10.86279,0.46203 -6.63778,3.85692c2.35744,-1.40964 8.11943,-0.06145 2.87147,1.5192c-9.49193,0.40674 -19.01956,0.58875 -28.48085,-0.69371l0,-0.00001zm23.10288,-3.86358c-2.89318,-5.55521 -12.89142,-4.48784 -14.71096,0.57206c3.54431,3.78489 10.85847,2.46773 14.62978,0.1753l0.08118,-0.74737l0,0l0,0.00001zm20.91324,-3.23531c-4.26439,-3.99343 -12.06886,-4.43414 -15.90004,-1.18777c4.81067,3.05332 10.71138,1.81071 15.90004,1.18777zm-21.07047,-1.8293c4.53117,-5.13202 -7.99443,-4.17687 -10.76344,-3.91532c-6.84819,4.13431 2.77819,5.27612 5.65409,4.59846c1.71342,-0.01499 3.43393,-0.18563 5.10936,-0.68314l-0.00001,0z" stroke-dasharray="2,2" stroke-width="0" stroke="#5B9BA2" fill="#ff0000"/>
 </g>

</svg>