<svg width="200" height="200" xmlns="http://www.w3.org/2000/svg">
 <g id="Layer_1">
  <title>Layer 1</title>
  <path filter="url(#svg_4_blur)" id="svg_4" d="m137.57898,37.99568l0,11.51688c-19.03933,1.6164 -34.03593,18.75397 -34.03593,39.65702c0,-3.76549 4.14431,-6.8238 9.24776,-6.8238c5.10644,0 9.25075,3.05831 9.25075,6.8238c0,-3.76549 4.14132,-6.8238 9.24776,-6.8238c2.42922,0 4.63733,0.71636 6.28967,1.84601l0,56.15169c0,2.51186 -1.32666,4.54614 -2.95809,4.54614c-1.63442,0 -2.96108,-2.03428 -2.96108,-4.54614l0,-2.27766l-5.91916,0l0,2.27766c0,7.53557 3.97997,13.65219 8.88024,13.65219s8.87725,-6.11662 8.87725,-13.65219l0,-56.15169c1.65235,-1.13424 3.86344,-1.84601 6.29266,-1.84601c5.10046,0 9.25075,3.05831 9.25075,6.8238c0,-3.76549 4.14431,-6.8238 9.24477,-6.8238c5.11241,0 9.25672,3.05831 9.25672,6.8238c0,-20.89846 -14.9996,-38.03602 -34.04191,-39.65702l0,-11.51688l-5.92215,0z" stroke="#000" fill="#FFAC8D"/>
  <text stroke-dasharray="2,2" transform="matrix(2.65456 0 0 2.65687 -105.958 -173.336)" stroke="#000" font-style="normal" font-weight="normal" text-anchor="start" font-family="'Montserrat'" font-size="25" id="svg_2" y="119.74723" x="45.36303" stroke-width="0" fill="#1F361B">London</text>
 </g>
 <defs>
  <filter id="svg_4_blur">
   <feGaussianBlur stdDeviation="0" in="SourceGraphic"/>
  </filter>
 </defs>
</svg>