<svg width="200" height="200" xmlns="http://www.w3.org/2000/svg">
 <g id="Layer_1">
  <title>Layer 1</title>
  <text stroke-dasharray="2,2" transform="matrix(2.34045 0 0 2.45775 -93.3655 -159.013)" stroke="#000" font-style="normal" font-weight="normal" text-anchor="start" font-family="'Sacramento'" font-size="22" id="svg_2" y="92.27126" x="41.59593" stroke-width="0" fill="#4D2425">Mumbai</text>
  <path id="svg_6" d="m60.77927,169.84574c5.2172,-0.06728 -4.96865,-0.31221 -6.77542,-0.44722c-15.09708,-0.37573 -27.62635,-15.78078 -25.99572,-31.06867c0.33019,-15.2981 14.68685,-28.73674 29.62964,-27.1973c3.88961,-1.69577 9.41109,3.90057 11.82606,1.22755c6.20294,-11.23024 12.21294,-22.57781 18.66582,-33.65866c5.49654,-0.80519 12.04487,-1.42757 17.39187,0.09861c2.47199,3.99643 -2.02245,5.08444 -4.827,4.46748c-3.13025,0 -6.26049,0 -9.39074,0c-2.26608,4.24311 -4.59142,8.45241 -6.90691,12.66721c13.15194,0 26.30389,0 39.45583,0c0.29287,-1.43585 3.61499,-4.52954 0.66977,-4.19325c-5.35085,-0.69215 -2.00368,-7.03909 1.95881,-5.23351c5.56212,0.20976 11.32085,-0.56273 16.71605,0.58169c2.88204,5.93636 -5.4512,4.66281 -9.02336,4.72574c-2.64408,-0.88571 -3.19203,1.82708 -4.23891,3.68333c-4.24454,4.46226 -1.60629,9.16523 1.24645,13.51521c1.04639,1.97889 1.79183,4.72537 4.33812,2.87633c5.1925,-1.17103 10.85329,-1.2135 16.02011,0.15576c10.79658,3.29204 19.45322,13.56572 20.17797,25.20358c0.65398,7.14842 -0.83501,14.51675 -5.17042,20.28351c-5.02844,7.39191 -13.18895,11.43946 -21.77395,12.26052m-6.7308,0.07216c-7.82668,-2.06134 -15.04268,-6.85696 -19.22622,-14.097c-2.73778,-3.61886 -3.0937,-9.22193 -4.54888,-12.85208c-3.83797,-0.05154 -7.67594,-0.10308 -11.51391,-0.15461c-7.77336,-12.83415 -14.6249,-26.25656 -22.12323,-39.26962c-1.46163,4.45497 -9.77096,10.516 -5.18293,14.61688c11.51442,9.91577 13.0478,29.28397 3.19933,40.95915c-4.51332,5.19259 -10.77427,8.77091 -17.21029,10.79364m0.49434,-7.06071c12.41983,-2.7758 20.35636,-17.47313 16.06048,-29.73064c-1.32761,-3.99218 -4.98052,-10.36932 -8.20688,-10.43468c-3.4392,6.09424 -6.53316,12.40668 -10.30244,18.29671c-8.27698,1.49423 -0.69379,-8.84909 1.05757,-12.3638c1.8777,-4.28828 8.69637,-11.22528 0.10663,-11.12257c-6.03028,-0.61588 -12.43883,-0.0203 -17.31709,4.0876c-10.46904,7.11025 -12.45049,23.37292 -4.52236,33.17631c5.36712,7.14192 14.63557,10.17829 23.12408,8.09108l0,0zm86.89684,-0.00177c10.60076,-2.55625 18.22921,-13.73833 16.85706,-24.83635c-0.72571,-12.33355 -12.71032,-22.30825 -24.62512,-20.65052c-8.92829,-0.86723 -0.38049,7.54509 0.8957,11.63474c1.21411,4.34247 7.90235,9.67604 4.16832,13.91086c-8.37502,0.36009 -16.95537,-0.25287 -25.30739,0.61383c1.50009,11.3664 11.98103,20.76886 23.29072,19.89907c1.58716,-0.01329 3.18197,-0.15109 4.72072,-0.57164l0,0zm-34.21371,-25.40189c1.00874,-8.89338 5.92055,-16.98309 13.08397,-22.0449c0.42322,-2.18154 -3.91429,-12.22943 -5.50252,-5.22428c-4.90231,9.14519 -9.83053,18.27812 -14.58262,27.50621c2.27653,0.05651 4.82849,0.46448 7.00117,-0.23702zm25.5894,-0.44108c-2.82594,-5.45238 -5.71462,-10.87203 -8.66835,-16.25258c-5.92526,3.20687 -9.82333,9.99346 -10.74478,16.76731c6.46963,-0.14154 13.0478,0.34695 19.42997,-0.35373l-0.01681,-0.161l0,0l-0.00002,0zm-27.71521,-19.66666c2.78709,-5.27938 5.62707,-10.53095 8.32808,-15.85721c-11.74479,-0.27022 -23.51623,-0.32942 -35.25706,0.05711c6.0306,10.63733 11.47893,21.68671 18.07281,31.95017c3.18837,-5.03334 5.89628,-10.82822 8.85617,-16.15006l0,0z" stroke-dasharray="2,2" stroke-width="0" stroke="#000" fill="#482816"/>
 </g>

</svg>