<svg width="200" height="200" xmlns="http://www.w3.org/2000/svg">
 <g id="Layer_1">
  <title>Layer 1</title>
  <path stroke="#000" id="svg_3" d="m54.30071,163.98326c-9.76967,-1.16584 -17.14499,-6.81194 -14.6989,-12.68229c3.45953,-8.23588 16.56646,-13.93299 29.68376,-16.64062c8.73751,-1.70105 18.65267,-1.44391 26.85688,1.08536c0.73259,-31.45757 0.31426,-62.92308 0.42551,-94.38421c2.96139,-0.00043 6.76154,-0.56088 5.9569,1.95319c0.41322,5.64953 5.14938,10.82138 12.4279,14.46573c16.23758,8.86836 34.5032,18.4983 38.23317,32.01446c1.05885,5.70223 -0.07599,11.44899 -2.2369,17.01741c6.39937,7.00167 6.01376,15.48461 3.41533,23.07854c-1.68495,4.00995 -4.43326,7.87278 -7.92686,11.44987c-8.24897,2.25105 0.97774,-3.67931 0.86201,-5.81571c4.46183,-6.41803 4.97368,-13.56715 2.94428,-20.32768c-4.4209,-9.88973 -21.13433,-14.72188 -34.57458,-19.89254c-4.86301,-1.11564 -15.25797,-7.84433 -13.19674,-1.25089c-0.45051,17.87272 -0.37359,35.74802 -0.51471,53.62211c-5.64166,8.28674 -18.58403,14.61107 -33.61664,16.19694c-4.60535,0.46655 -9.42835,0.63717 -14.04042,0.11034l0.00001,-0.00001zm93.73025,-67.5775c0.13402,-10.17143 -12.78985,-18.40103 -25.45352,-24.4329c-6.33679,-2.80064 -13.04913,-5.76773 -20.1746,-7.58036c0.43827,5.84901 5.00384,11.54799 10.46872,16.40518c10.2987,8.08925 25.8467,13.5001 34.47389,22.4067c1.0345,-2.21136 0.72246,-4.53228 0.68552,-6.79862z" fill="#fff"/>
  <text stroke-dasharray="2,2" transform="matrix(1.34767 0 0 1.90323 -33.6883 -91.1613)" stroke="#000" font-style="normal" font-weight="normal" text-anchor="start" font-family="'Montserrat'" font-size="24" id="svg_2" y="120.5" x="48" stroke-width="0" fill="#4C261D">New York</text>
 </g>

</svg>