<svg width="200" height="200" xmlns="http://www.w3.org/2000/svg">
 <g id="Layer_1">
  <title>Layer 1</title>
  <path id="svg_6" d="m78.47595,143.04978l43.35585,0c6.24946,-0.01356 10.51289,-6.17745 10.49208,-12.5187l0,-4.26384c12.37311,-0.01139 21.35,-10.90505 21.34538,-23.60762c0.00463,-12.92876 -8.79605,-23.55067 -19.03976,-23.54145l-66.82786,0l0,51.41399c0.00971,6.98183 5.13758,12.50514 10.67431,12.51761zm53.84654,-54.26053l0,0l2.30562,0c8.47692,-0.01573 11.19602,9.38577 11.15532,13.94088c0.00833,7.35501 -4.63668,14.40898 -13.46094,13.72446l0,-27.66535zm-88.41143,57.39129c0.00786,9.50347 6.18563,13.91051 11.1581,13.93763l89.68565,0c5.93125,-0.02712 11.12988,-5.49619 11.15625,-13.93763l-111.99999,0z" stroke-dasharray="2,2" stroke-width="0" stroke="#5B9BA2" fill="#84450a"/>
  <text font-style="normal" font-weight="normal" transform="matrix(2.78369 0 0 1.6 -26.7553 -11.7)" stroke="#5B9BA2" xml:space="preserve" text-anchor="start" font-family="'Calistoga'" font-size="25" id="svg_8" y="52.875" x="16.79618" stroke-dasharray="2,2" stroke-width="0" fill="#ff5656">Paris</text>
 </g>

</svg>