<svg width="200" height="200" xmlns="http://www.w3.org/2000/svg">
 <g id="Layer_1">
  <title>Layer 1</title>
  <path id="svg_9" d="m81.72642,175.56579c-6.72714,-7.64619 0.1707,-22.74511 5.77995,-17.86215c4.17416,-0.02019 8.34835,-0.00687 12.52252,-0.01075c0,-17.40454 0,-34.8091 0,-52.21365c-10.4563,-26.74081 -20.9126,-53.48162 -31.3689,-80.22243c23.66659,-0.18625 47.33341,-0.18604 71,0c-10.26832,26.87294 -20.53664,53.74588 -30.80495,80.61882c0,17.27243 0,34.54484 0,51.81726c6.16323,0.1165 12.33701,-0.31676 18.49121,0.44099c4.84549,2.75953 2.90582,19.63082 -1.80327,17.85232c-14.60505,-0.10774 -29.21477,0.19621 -43.81655,-0.4204l0,-0.00001zm30.36897,-94.531c4.70696,-3.80265 4.04523,-20.25695 -1.00395,-21.93465c-7.61661,-4.44801 -9.26131,23.56424 -1.25573,22.90687c0.77304,0.01076 1.5585,-0.2213 2.25968,-0.97222l0,0z" stroke-dasharray="2,2" stroke-width="0" stroke="#5B9BA2" fill="#bfbf00"/>
  <text transform="matrix(1.28853 0 0 1.57576 -12.9839 -65.3485)" stroke="#5B9BA2" xml:space="preserve" text-anchor="start" font-family="'Calistoga'" font-size="25" id="svg_10" y="134.69231" x="34.13492" stroke-dasharray="2,2" stroke-width="0" fill="#7f7f00">Sao Paulo</text>
 </g>

</svg>