<svg width="200" height="200" xmlns="http://www.w3.org/2000/svg">
 <g id="Layer_1">
  <title>Layer 1</title>
  <text fill="#CE7975" stroke-width="0" x="49.74277" y="140.22341" id="svg_2" font-size="15" font-family="'Sacramento'" text-anchor="start" xml:space="preserve" font-weight="normal" font-style="normal" stroke="#5B9BA2" transform="matrix(1.9333 0 0 1.92004 -71.6645 -225.118)" stroke-dasharray="2,2">San Francisco</text>
  <path stroke="#5B9BA2" id="svg_1" d="m81.55285,43.202c-1.56949,0.083 -2.99626,0.8496 -4.16203,1.89274c0.00537,5.59323 -6.63871,10.4025 -8.88366,14.27487c1.37659,0.76756 0.67486,1.21862 -0.61574,1.8399c-0.10153,1.0455 0.2795,2.06421 1.47394,3.05587c-1.5474,17.39755 -3.59766,38.29655 -5.20657,55.86258c3.67172,0.05733 7.37807,0.46407 11.23493,0.28542c-0.00418,-13.52526 1.51634,-35.13205 1.96008,-48.19636c-0.06032,-4.24159 -0.301,-9.98306 7.83792,-11.9909c-4.14769,-6.14186 3.53674,-14.83228 -3.32174,-17.02412c-0.08719,-0.00051 -0.17499,-0.00368 -0.26158,0c-0.01851,0.00078 -0.03703,-0.00098 -0.05554,0l0,0l0,0zm6.98271,71.36089c-2.8159,2.76987 -7.04243,4.22522 -8.44829,5.65232c-3.21065,3.5181 -8.58744,-1.31576 -16.05928,1.24471c0.03882,-0.42543 0.09137,-0.90238 0.13079,-1.33196c-0.04299,-0.00083 -0.08779,0.00042 -0.13079,0c-3.9769,0.42086 -7.26042,-3.20444 -7.5214,-6.41843c3.31577,-4.93981 -8.50562,-7.48076 -11.64581,-2.42171c-2.35484,5.65232 -0.24486,11.4301 2.85592,16.89755c3.54331,6.71465 -5.29795,12.53814 -7.89479,18.76878c-2.471,3.94769 -2.55067,8.50444 1.60485,12.12808c5.66524,5.64359 17.56607,7.73917 28.40563,7.79318c1.93142,0.09306 3.85089,0.172 5.78529,0.24304c34.41008,1.36437 20.51693,-14.59798 15.09894,-28.42279c-3.47703,-9.00008 0.88508,-15.1144 3.74398,-17.70437c1.58801,-3.05363 3.60064,-9.55556 -5.92504,-6.42798l0,-0.00042l0,0zm-20.64414,-53.35337c1.45424,-4.95144 -4.83987,0.29456 0,0z" stroke-dasharray="2,2" stroke-width="0" fill="#CE7975"/>
 </g>

</svg>